name Walk9.mot
datacolumns 19
datarows 20
range 1.19000000 1.28500000
endheader

                time	   L_ground_force_vx	   L_ground_force_vy	   L_ground_force_vz	   L_ground_force_px	   L_ground_force_py	   L_ground_force_pz	   R_ground_force_vx	   R_ground_force_vy	   R_ground_force_vz	   R_ground_force_px	   R_ground_force_py	   R_ground_force_pz	   L_ground_torque_x	   L_ground_torque_y	   L_ground_torque_z	   R_ground_torque_x	   R_ground_torque_y	   R_ground_torque_z	
          1.19000000	         -8.97815423	         93.99968897	         -8.52058908	         -0.05568270	          0.00000000	         -0.00707976	         -0.00000000	          0.00000000	          0.00000000	          0.00000000	          0.00000000	          0.00000000	          0.00000000	          0.26440772	          0.00000000	          0.00000000	         -0.00000000	          0.00000000	
          1.19500000	        -13.14078150	        135.88281933	        -12.74477070	         -0.12293523	          0.00000000	         -0.01589692	         -0.00000000	          0.00000000	          0.00000000	         -0.00000000	          0.00000000	         -0.00000000	          0.00000000	          0.40018816	          0.00000000	          0.00000000	         -0.00000000	          0.00000000	
          1.20000000	        -18.86607751	        177.88552911	        -16.71652462	         -0.18167660	          0.00000000	         -0.02366390	         -0.00000000	         -0.00000000	          0.00000000	         -0.00000000	          0.00000000	         -0.00000000	          0.00000000	          0.55140397	          0.00000000	          0.00000000	          0.00000000	          0.00000000	
          1.20500000	        -25.99349980	        218.10827913	        -20.20731820	         -0.23016271	          0.00000000	         -0.03016175	         -0.00000000	         -0.00000000	          0.00000000	         -0.00000000	          0.00000000	         -0.00000000	          0.00000000	          0.71295047	          0.00000000	          0.00000000	          0.00000000	          0.00000000	
          1.21000000	        -34.09026892	        255.48741895	        -23.05173605	         -0.26809593	          0.00000000	         -0.03535527	          0.00000000	         -0.00000001	          0.00000000	         -0.00000000	          0.00000000	         -0.00000000	          0.00000000	          0.87840360	          0.00000000	          0.00000000	          0.00000000	          0.00000000	
          1.21500000	        -42.56087515	        289.58690713	        -25.14690213	         -0.29612784	          0.00000000	         -0.03933087	          0.00000000	         -0.00000002	          0.00000000	         -0.00000000	          0.00000000	         -0.00000000	          0.00000000	          1.04035532	          0.00000000	          0.00000000	          0.00000000	          0.00000000	
          1.22000000	        -50.78042019	        320.38286701	        -26.43988282	         -0.31546089	          0.00000000	         -0.04224513	          0.00000000	         -0.00000003	          0.00000000	         -0.00000000	          0.00000000	         -0.00000000	          0.00000000	          1.19110047	          0.00000000	          0.00000000	          0.00000000	          0.00000000	
          1.22500000	        -58.23768434	        348.12808052	        -26.91426478	         -0.32754599	          0.00000000	         -0.04428666	          0.00000000	         -0.00000004	          0.00000000	         -0.00000000	          0.00000000	         -0.00000000	          0.00000000	          1.32339258	          0.00000000	          0.00000000	          0.00000000	          0.00000000	
          1.23000000	        -64.65638315	        373.19499453	        -26.57434512	         -0.33386822	          0.00000000	         -0.04564872	          0.00000001	         -0.00000005	          0.00000000	         -0.00000000	          0.00000000	         -0.00000000	          0.00000000	          1.43153323	          0.00000000	          0.00000000	          0.00000000	          0.00000000	
          1.23500000	        -70.02289075	        395.96061608	        -25.43333301	         -0.33581039	          0.00000000	         -0.04651094	          0.00000001	         -0.00000006	          0.00000000	         -0.00000000	          0.00000000	         -0.00000000	          0.00000000	          1.51238686	          0.00000000	          0.00000000	          0.00000000	          0.00000000	
          1.24000000	        -74.49843767	        416.75788829	        -23.51260950	         -0.33458108	          0.00000000	         -0.04703020	          0.00000001	         -0.00000008	          0.00000000	         -0.00000000	          0.00000000	         -0.00000000	          0.00000000	          1.56540864	          0.00000000	          0.00000000	          0.00000000	          0.00000000	
          1.24500000	        -78.28834029	        435.85627063	        -20.84805393	         -0.33118963	          0.00000000	         -0.04733765	          0.00000001	         -0.00000009	          0.00000000	         -0.00000000	          0.00000000	         -0.00000000	          0.00000000	          1.59222664	          0.00000000	          0.00000000	          0.00000000	          0.00000000	
          1.25000000	        -81.55281585	        453.43873110	        -17.49659307	         -0.32645097	          0.00000000	         -0.04753595	          0.00000002	         -0.00000010	          0.00000000	         -0.00000000	          0.00000000	         -0.00000000	          0.00000000	          1.59651643	          0.00000000	          0.00000000	          0.00000000	          0.00000000	
          1.25500000	        -84.38113993	        469.56914140	        -13.54089052	         -0.32100370	          0.00000000	         -0.04769852	          0.00000002	         -0.00000010	          0.00000000	         -0.00000000	          0.00000000	         -0.00000000	          0.00000000	          1.58344160	          0.00000000	          0.00000000	          0.00000000	          0.00000000	
          1.26000000	        -86.80193669	        484.21331583	         -9.08773018	         -0.31532786	          0.00000000	         -0.04787306	          0.00000002	         -0.00000008	         -0.00000000	         -0.00000000	          0.00000000	         -0.00000000	          0.00000000	          1.55860293	          0.00000000	          0.00000000	          0.00000000	          0.00000000	
          1.26500000	        -88.80666179	        497.32426402	         -4.25804108	         -0.30976432	          0.00000000	         -0.04808547	          0.00000002	         -0.00000005	         -0.00000000	          0.00000000	          0.00000000	          0.00000000	          0.00000000	          1.52701018	          0.00000000	          0.00000000	          0.00000000	          0.00000000	
          1.27000000	        -90.37982497	        508.90121277	          0.82195319	         -0.30453718	          0.00000000	         -0.04834354	          0.00000002	          0.00000000	         -0.00000000	          0.00000000	          0.00000000	          0.00000000	          0.00000000	          1.49230394	          0.00000000	          0.00000000	         -0.00000000	          0.00000000	
          1.27500000	        -91.51962603	        518.99718053	          6.02362048	         -0.29977505	          0.00000000	         -0.04864363	          0.00000001	          0.00000009	         -0.00000000	          0.00000000	          0.00000000	          0.00000000	          0.00000000	          1.45623550	          0.00000000	          0.00000000	         -0.00000000	          0.00000000	
          1.28000000	        -92.23929034	        527.72173379	         11.21495567	         -0.29553218	          0.00000000	         -0.04897534	         -0.00000000	          0.00000021	         -0.00000001	          0.00000000	          0.00000000	          0.00000000	          0.00000000	          1.41897001	          0.00000000	          0.00000000	         -0.00000000	          0.00000000	
          1.28500000	        -92.56090601	        535.23910409	         16.25654877	         -0.29181049	          0.00000000	         -0.04932371	         -0.00000002	          0.00000037	         -0.00000001	          0.00000000	          0.00000000	          0.00000000	          0.00000000	          1.38000313	          0.00000000	          0.00000000	         -0.00000000	          0.00000000	
